<svg width="42" height="43" viewBox="0 0 42 43" fill="none" xmlns="http://www.w3.org/2000/svg">
<g filter="url(#filter0_d_1_135)">
<path d="M26.25 17.3806C26.25 18.773 25.6968 20.1083 24.7123 21.0929C23.7277 22.0774 22.3923 22.6306 21 22.6306C19.6076 22.6306 18.2722 22.0774 17.2876 21.0929C16.3031 20.1083 15.75 18.773 15.75 17.3806C15.75 17.0813 15.7815 16.7891 15.8357 16.5056H14V23.5003C14 23.9868 14.3937 24.3806 14.8802 24.3806H27.1215C27.3546 24.3801 27.5781 24.2872 27.7428 24.1221C27.9075 23.9571 28 23.7335 28 23.5003V16.5056H26.1642C26.2185 16.7891 26.25 17.0813 26.25 17.3806V17.3806ZM21 20.8806C21.4597 20.8805 21.9149 20.7898 22.3396 20.6137C22.7643 20.4377 23.1502 20.1797 23.4752 19.8546C23.8002 19.5294 24.058 19.1434 24.2338 18.7186C24.4096 18.2938 24.5001 17.8386 24.5 17.3788C24.4998 16.9191 24.4092 16.4639 24.2331 16.0392C24.0571 15.6145 23.7991 15.2286 23.474 14.9036C23.1488 14.5786 22.7628 14.3208 22.338 14.145C21.9132 13.9691 21.4579 13.8787 20.9982 13.8788C20.0697 13.8791 19.1793 14.2481 18.523 14.9048C17.8666 15.5615 17.498 16.4521 17.4982 17.3806C17.4984 18.3091 17.8675 19.1994 18.5242 19.8558C19.1809 20.5122 20.0715 20.8808 21 20.8806V20.8806ZM25.2 13.7056H27.2982C27.4376 13.7056 27.5713 13.6503 27.6701 13.5519C27.7688 13.4535 27.8245 13.32 27.825 13.1806V11.0823C27.825 10.9426 27.7695 10.8086 27.6707 10.7098C27.5719 10.6111 27.4379 10.5556 27.2982 10.5556H25.2C25.0603 10.5556 24.9263 10.6111 24.8275 10.7098C24.7287 10.8086 24.6732 10.9426 24.6732 11.0823V13.1806C24.675 13.4693 24.9112 13.7056 25.2 13.7056V13.7056ZM21 0.580566C16.5443 0.580566 12.2712 2.35056 9.12056 5.50117C5.96995 8.65178 4.19995 12.9249 4.19995 17.3806C4.19995 21.8362 5.96995 26.1094 9.12056 29.26C12.2712 32.4106 16.5443 34.1806 21 34.1806C23.2062 34.1806 25.3908 33.746 27.429 32.9017C29.4673 32.0575 31.3193 30.82 32.8793 29.26C34.4394 27.6999 35.6769 25.8479 36.5211 23.8097C37.3654 21.7714 37.8 19.5868 37.8 17.3806C37.8 15.1744 37.3654 12.9898 36.5211 10.9515C35.6769 8.91322 34.4394 7.0612 32.8793 5.50117C31.3193 3.94115 29.4673 2.70367 27.429 1.85939C25.3908 1.01511 23.2062 0.580566 21 0.580566V0.580566ZM29.75 24.1863C29.75 25.2556 28.875 26.1306 27.8057 26.1306H14.1942C13.125 26.1306 12.25 25.2556 12.25 24.1863V10.5748C12.25 9.50557 13.125 8.63057 14.1942 8.63057H27.8057C28.875 8.63057 29.75 9.50557 29.75 10.5748V24.1863V24.1863Z" fill="white"/>
</g>
<defs>
<filter id="filter0_d_1_135" x="0.199951" y="0.580566" width="41.6" height="41.6001" filterUnits="userSpaceOnUse" color-interpolation-filters="sRGB">
<feFlood flood-opacity="0" result="BackgroundImageFix"/>
<feColorMatrix in="SourceAlpha" type="matrix" values="0 0 0 0 0 0 0 0 0 0 0 0 0 0 0 0 0 0 127 0" result="hardAlpha"/>
<feOffset dy="4"/>
<feGaussianBlur stdDeviation="2"/>
<feComposite in2="hardAlpha" operator="out"/>
<feColorMatrix type="matrix" values="0 0 0 0 0 0 0 0 0 0 0 0 0 0 0 0 0 0 0.25 0"/>
<feBlend mode="normal" in2="BackgroundImageFix" result="effect1_dropShadow_1_135"/>
<feBlend mode="normal" in="SourceGraphic" in2="effect1_dropShadow_1_135" result="shape"/>
</filter>
</defs>
</svg>
