<svg width="43" height="43" viewBox="0 0 43 43" fill="none" xmlns="http://www.w3.org/2000/svg">
<g filter="url(#filter0_d_1_132)">
<path d="M21.4 0.580566C12.1215 0.580566 4.59998 8.10207 4.59998 17.3806C4.59998 26.6591 12.1215 34.1806 21.4 34.1806C30.6785 34.1806 38.2 26.6591 38.2 17.3806C38.2 8.10207 30.6785 0.580566 21.4 0.580566ZM28.2337 14.3426C28.2407 14.4861 28.2425 14.6296 28.2425 14.7696C28.2425 19.1446 24.9157 24.1863 18.8292 24.1863C17.0307 24.1893 15.2697 23.6728 13.7577 22.6988C14.015 22.7303 14.2792 22.7426 14.547 22.7426C16.0975 22.7426 17.5237 22.2158 18.656 21.3268C17.966 21.3133 17.2974 21.0848 16.7434 20.6732C16.1894 20.2617 15.7777 19.6875 15.5655 19.0308C16.061 19.125 16.5715 19.1053 17.0582 18.9731C16.3093 18.8216 15.6358 18.4158 15.152 17.8245C14.6681 17.2331 14.4037 16.4926 14.4035 15.7286V15.6883C14.8497 15.9351 15.3607 16.0856 15.9032 16.1031C15.2011 15.6357 14.7041 14.9177 14.5138 14.0961C14.3235 13.2744 14.4543 12.411 14.8795 11.6826C15.7106 12.7046 16.7472 13.5406 17.922 14.1366C19.0968 14.7326 20.3836 15.0752 21.6992 15.1423C21.532 14.4324 21.604 13.687 21.904 13.0222C22.204 12.3574 22.7153 11.8103 23.3584 11.466C24.0014 11.1218 24.7402 10.9996 25.4598 11.1185C26.1794 11.2374 26.8396 11.5907 27.3377 12.1236C28.0783 11.9771 28.7884 11.7054 29.4377 11.3203C29.1909 12.0871 28.6742 12.7381 27.9835 13.1526C28.6395 13.0736 29.28 12.8972 29.884 12.6293C29.4403 13.2941 28.8815 13.8743 28.2337 14.3426V14.3426Z" fill="white"/>
</g>
<defs>
<filter id="filter0_d_1_132" x="0.599976" y="0.580566" width="41.6" height="41.6001" filterUnits="userSpaceOnUse" color-interpolation-filters="sRGB">
<feFlood flood-opacity="0" result="BackgroundImageFix"/>
<feColorMatrix in="SourceAlpha" type="matrix" values="0 0 0 0 0 0 0 0 0 0 0 0 0 0 0 0 0 0 127 0" result="hardAlpha"/>
<feOffset dy="4"/>
<feGaussianBlur stdDeviation="2"/>
<feComposite in2="hardAlpha" operator="out"/>
<feColorMatrix type="matrix" values="0 0 0 0 0 0 0 0 0 0 0 0 0 0 0 0 0 0 0.25 0"/>
<feBlend mode="normal" in2="BackgroundImageFix" result="effect1_dropShadow_1_132"/>
<feBlend mode="normal" in="SourceGraphic" in2="effect1_dropShadow_1_132" result="shape"/>
</filter>
</defs>
</svg>
